/* XPM */
static char *aa71c98a4a964110932b110a59a96655OTjyi02Y5MvC10dE[] = {
/* columns rows colors chars-per-pixel */
"80 58 248 2 ",
"   c #040302",
".  c #090604",
"X  c #0C0906",
"o  c #0E0B09",
"O  c #06050C",
"+  c #120E0B",
"@  c #15110D",
"#  c #19130E",
"$  c #0B0B14",
"%  c #161311",
"&  c #1A1511",
"*  c #1E1915",
"=  c #17171D",
"-  c #0F101D",
";  c #211B16",
":  c #241E19",
">  c #281E1C",
",  c #26211C",
"<  c #2B231D",
"1  c #33281E",
"2  c #191A26",
"3  c #2D2621",
"4  c #2E2823",
"5  c #272529",
"6  c #332B24",
"7  c #3A2D24",
"8  c #352E29",
"9  c #362D26",
"0  c #3B3026",
"q  c #3C332B",
"w  c #36312B",
"e  c #272936",
"r  c #3C3531",
"t  c #393637",
"y  c #302F38",
"u  c #1F202A",
"i  c #42362C",
"p  c #43382E",
"a  c #4B3B2D",
"s  c #433326",
"d  c #443A32",
"f  c #4A3E34",
"g  c #443E3A",
"h  c #493E39",
"j  c #523D2F",
"k  c #4D4136",
"l  c #4C433B",
"z  c #46403C",
"x  c #534335",
"c  c #53463B",
"v  c #55493E",
"b  c #5B4B3D",
"n  c #5A4433",
"m  c #5F442D",
"M  c #644D39",
"N  c #69523C",
"B  c #7D5B3E",
"V  c #383B48",
"C  c #2F3249",
"Z  c #3E414F",
"A  c #3A426E",
"S  c #4B4642",
"D  c #4E4944",
"F  c #474547",
"G  c #534B43",
"H  c #5A4E43",
"J  c #544E4A",
"K  c #514741",
"L  c #5D5145",
"P  c #5C534C",
"I  c #56514C",
"U  c #484A56",
"Y  c #5A5653",
"T  c #5D5954",
"R  c #595758",
"E  c #4E5057",
"W  c #635345",
"Q  c #62564B",
"!  c #64594D",
"~  c #695A4C",
"^  c #6B5645",
"/  c #765D48",
"(  c #635B54",
")  c #6A5D52",
"_  c #635E59",
"`  c #605751",
"'  c #725F51",
"]  c #79614B",
"[  c #6C6155",
"{  c #66615C",
"}  c #6B635B",
"|  c #676056",
" . c #726355",
".. c #72665B",
"X. c #75695D",
"o. c #7B6B5C",
"O. c #7B6654",
"+. c #575A66",
"@. c #4E5462",
"#. c #5C616E",
"$. c #5E6471",
"%. c #6A6662",
"&. c #6E6963",
"*. c #676769",
"=. c #736B63",
"-. c #7B6E62",
";. c #716E6B",
":. c #716761",
">. c #7C7165",
",. c #75716C",
"<. c #7C746B",
"1. c #787369",
"2. c #676B76",
"3. c #747373",
"4. c #7A7673",
"5. c #7D7C7B",
"6. c #7C7975",
"7. c #6D727B",
"8. c #856D56",
"9. c #886E55",
"0. c #827364",
"q. c #82766A",
"w. c #85796D",
"e. c #8A7C6D",
"r. c #8C7865",
"t. c #937C66",
"y. c #847C73",
"u. c #8A7E73",
"i. c #827E7B",
"p. c #807771",
"a. c #806F61",
"s. c #95816D",
"d. c #8C8175",
"f. c #8C857C",
"g. c #87837C",
"h. c #928474",
"j. c #92867A",
"k. c #94897D",
"l. c #9A8B7C",
"z. c #998875",
"x. c #968876",
"c. c #A28E78",
"v. c #AD967B",
"b. c #6C7483",
"n. c #757B88",
"m. c #505881",
"M. c #3C4C88",
"N. c #7D828A",
"B. c #7C8594",
"V. c #848384",
"C. c #8A8682",
"Z. c #8C8984",
"A. c #8C8B8B",
"S. c #86878A",
"D. c #948C83",
"F. c #998D82",
"G. c #938E89",
"H. c #9C9185",
"J. c #95918C",
"K. c #9C948B",
"L. c #9D968D",
"P. c #858B98",
"I. c #8C929B",
"U. c #949393",
"Y. c #9A9692",
"T. c #9D9A94",
"R. c #9B9B9B",
"E. c #95979A",
"W. c #A29384",
"Q. c #A2968A",
"!. c #A49A8C",
"~. c #AB9D8C",
"^. c #AA9986",
"/. c #A49C93",
"(. c #AA9E92",
"). c #A29E99",
"_. c #B19F8A",
"`. c #B6A38D",
"'. c #ABA195",
"]. c #A4A19B",
"[. c #ACA49B",
"{. c #AAA49A",
"}. c #B3A493",
"|. c #B1A69B",
" X c #B3AA9D",
".X c #BAAB99",
"XX c #B5A896",
"oX c #8C95A2",
"OX c #929AA5",
"+X c #939DAA",
"@X c #9A9DA2",
"#X c #99A2AC",
"$X c #9CA6B4",
"%X c #ADAAA4",
"&X c #ACACAB",
"*X c #A6A5A4",
"=X c #B3ADA4",
"-X c #B6AEA6",
";X c #BBB2A4",
":X c #B5B1AB",
">X c #BBB4AB",
",X c #B9B3A9",
"<X c #A6ADB6",
"1X c #ABB2BA",
"2X c #B3B3B3",
"3X c #BCB9B4",
"4X c #BCBCBB",
"5X c #B8B8B4",
"6X c #AEB2AF",
"7X c #C2B29D",
"8X c #C4AE94",
"9X c #C3BAAD",
"0X c #C7B9A8",
"qX c #C3BCB3",
"wX c #C6BFB5",
"eX c #D1BFA9",
"rX c #CBC2B4",
"tX c #C5C2BC",
"yX c #CBC5BB",
"uX c #CAC4BA",
"iX c #D4CABA",
"pX c #DBD0BF",
"aX c #ABB7C3",
"sX c #B5BDC4",
"dX c #BBC4CB",
"fX c #B9C1C9",
"gX c #BCC8D2",
"hX c #C3C4C2",
"jX c #CCCAC3",
"kX c #C8CAC9",
"lX c #D3CDC3",
"zX c #D1CFCB",
"xX c #D3D2CC",
"cX c #DBD4C8",
"vX c #C8CED2",
"bX c #CCD4DA",
"nX c #D4D5D2",
"mX c #DADAD6",
"MX c #CDD0CE",
"NX c #E5DACA",
"BX c #E8E3D9",
"VX c #F2EBDF",
"CX c #D7DDE2",
"ZX c #CCD9E1",
"AX c #DBE1E5",
"SX c #E7E7E4",
"DX c #F6F3E9",
"FX c #F0F0ED",
/* pixels */
"X O X X X X + # < 0 7 1 1 s m B 8.9.t.t.t.a.h W :...C.C.V.i.G.Y.).qXwXwX-Xr.' S g _ } <.d.(.L.Y.&X,.J.).:X%X].k.4.L c  .h.^.^.`.XX0X9X9XQ.X.v r , # X X . O   . ",
"X . X o @ # * < 1 k a 7 1 a m B 9.t.t.t.t.W f :.p.).%X5XtXhXqX&X&X/.Q.u.H.Q.u.g w ( ;.d.K.w.k. XtX*X].5X4XhX:X].J.( k ~  .r.c.7X_.}.(..X;Xk.| r < & % o . O . O ",
". X X o # * , 1 a N M N N N ] s.t.t.t.t.' c ) u.Y.9XqXhXxXyXyXzXxXwXQ.r.~.D.D.g 4 g ..).k.H.=XkXmXjXtXjXtXiXqX6X!.d.z q W r.h.h.}..X~.~.}.~.<.v w , & @ o X . . ",
". X X o # , 1 k M N M B ] B B B t.t.r.' W u./.[.2X2X-XnXmXxXSXBXSXBXwXF.F.0.) 4 o r v (.'.'.tXBXBXBXFXBXcXxX]. X{.%Xw.8 l a.Q.l.e.c.^.c.W.H.l.[ l w : % X O O . ",
". . X + & < k N s.9.B m m x N ] 8.a.^ h p.-XqXtXwXtXtXyXlXFXwXNXDXDXNXQ.j.' h r - w ` /.-XwXSXDXVX;XeXDXVXNX,XK.K.=X!.( q K >.W..XW.H.~.W.l.j.q.| k 4 * o X . O ",
"  O o % : 4 0 k m ] 9.] N N M ] O.~ i :.|.jXtX%X9X4XhXxXBXVX8XeXBXDXFX9Xk.-.K d 8 R J./.%XlXFXDXBX`.8XeXDXBX4X{.Y.5XjX:X&.3 h W W..X~.c.c.^.e.O.! z 6 * @ X . . ",
"  X + : w b o.9.9.B m x x k d.s.' h a.-XwXjX9X-X%X%XkXtXBXeX7X`.iXDXDXlXH.' :.D S Y /.F.(.mXDXDXBX8Xv.8XBXSXxX3X].yXlXqX=X| 6 9 ' l.}.^.8.a.0...v k < , @ .     ",
". X o * r b / ~ N x 0 v d.~.~.d.H ..T.(.qXzXtX=X9XU.].9XBX8X^.t.7XVXVX0XH.) } I ` 4.D.F.0XcXVXVXNXv.v.v.iXpX3X:X=X>XlXqXwX].=.q 6 ~ l.z.e. .c ' v k 8 , @ . X   ",
". X + ; > q f x b W ^.rX.X}.~.X.( (.=X%XwXwX9X=X-X/.K.(.cXc.9.8.`.cXiX.Xw.-...} d ( y.T.9XjXBXBXcXc.9.t.lXmX>XK.].L.;XiX9X>X/.g.d > h L L W H h h p 9 , & o X   ",
"X # > 7 i f x p G .XiX7X7X^.w.P D.qXqX9XyXqX-XC./.-XK.K.wXt.M ^ _..X(.Q.0.=.-.P r =.} u.p.9XlXlXrXc./ 8.9X=X>X[.!.K. XyXuXjXwX-Xp.h 3 3 6 7 q i 6 6 > ; @ X .   ",
"+ : 6 q f H L q.rX7XrX.X}.j.( ..K.qXyXwX-X|.|.(.(.-X'.p...a.j ^ e.u.-.u.) -.q.G 8 ` j.Z.=.D.[.[.Q.u.c -.%X).:X/.D.C.).9XwXwX>X-X/.u.` H f f h i 7 1 , ; @ o .   ",
"& > < q c  .'.eXrXrX;X7XW.>.d y.9XyXNXwX(.j./.qXyX2XG.p.p.Y.i.W ...._ _ } q.y.K g ( d.d.=.:.D.Z.G.e.q.5X,Xi.5.A.=XqX:X,XqXrX9X[.=X Xu.0.0.-.O.H p 6 6 , # + . . ",
"* 3 h H Q ~..XrX0X0X7X(.u.P J Q.-XzXcXcX(.F.[.7X(._ > $ X 4 G.j.%X%XC.%.e.f.D.` G g.K./.y.f.G.*XkXqX%XY.>   $ * D G.L.u.'.>X9Xk.(.[.(.'.W.l.e.a.L 0 4 4 < @ . . ",
"+ * q k d..XwX0X7X0X}.q.} 6 :./.9XcXcXqXu.u.f.:.h = o > C u i &XmXnXR.>.u.H./.4.&.).,X=Xd.>.J.qXSXCX*X> V A > O O S -.q.<.[.=XK.Q. X[.(.~.^.~.!.j.H 1 > < ; + . ",
": 3 h <.[.wXiXwX0X~.k.) q r ..j.'.lXlX|.p.Q H K +.e i F M.A > R.mXzXi.u.H.!.%XH.<.].3X,XD.w.f.5XBXCX3.r A m.H 5 y F P ( >.k.K./.F.F.W.W.Q.(.W.H.l.0.p > ; & @ X ",
", G w.'.0X9X0X;XQ.a.! H 4 P -.u. XwX0X/...` /.hXqX2.h / 7 7 h 5.mX3Xf.j.H./.>X-XF.[.,X>XQ.j.D.%XmXsXu ^ j M ] e n.kXwXD.=.D.%Xj.f.W.u.H.l.l.^.!.k.a.G > ; # + X ",
"6 ! L..XXX!.x.d...( H f J q.D.w.(.wXqXF...q.:XnXzXhX+.^ 8.^ ; p.wX=Xj.F.k.j.-X=Xf.qXqX(.!.j.!.).wXY.- s 8.8.j n.jXnXnX(.p.j.%Xj...) >.0.e.8.z.l.z.0.c > # # + X ",
"d X.k.o.P ! [ ~ H L L J j.u.u.p.C.9X).q.>.y.L.T.%XhXzXI.R V C F &.).u.w.y.F.|.-Xw.-X>X'.j.j.F. XG.i.V V +.@.@XmXmXkX&Xu.q.u.(.G.( P w...o.) a.t.r.a.c 4 ; + + X ",
"d | D l ( ~ ~ Q ` ..:.w.F.l.q.....u.C.:.p.Q.K.).-X4XzXCXSXnXA.C ) C.q.u.-.F.[.'...-X9X(.u.-.>.F.!.J J qXSXSXzXzX4XR.V.p.p.f.K.(.<.=.>. .^ W X.0.r.s. .9 ; @ + o ",
", * 1 r v ( ) ~ ) 0.e.K.j.u.X.) ` q.F.4.<.K.,XtX2X&X*XnXSXCX2XK u.j.h.e.q.'.(.(.p. XjX9XF.e.j.^.H.:._ 4XAXSXnX2X*XqXY.K.u.p.K.-XC.) X.0.) ) H O.o.~ ] x < # @ X ",
"@ < , * g ! )  .q.e.h.W.h.-.~ | T D.J.y.} f.>XtX2X*X&X2XhXmXG.S ;.F.Q.e.F./.'.H.K.(.rX9X=Xx.l.^.j.P p.hXdXsXvXsX@XY.L.Z.p.p.C.%X&.l l Q ~ o.~ W o.] b c 1 * @ + ",
"% @ o w r ! [ o.l.a.h.u.h.>...-.} 1.].k.( | D.T.U.].*XaXvXhXJ.R =.q.F.<.D.=X-X=XK.).qXwX0X[.h.h.0.G p.tX2X2X<X&XR.T.).Y.p.p.D.!.<.} D 6 Q  .~ W W  .^ n < % % @ ",
"X . & , w Q >.h.z.a.h.l.a.0.>.[ P | d.6.| G ;.4.U.C.).E.@X@XG._ :.0.u.K.[.-X9X>X,X X9XqX>X,Xk.e.a.d p./.i.G.U.G.g.g.C.y.) Z.D.J.1.P ! 0 c [ [ b b W ^ l 0 * + o ",
"  X & ; q G l.l.q.e.h.j.h.0.d.| K &.<.f.1.I ,.=.C.C.*X*XU.R.V.F C.W.G./.3XuX&X%X*X:X,X=X=X=XH.H.|.K <.K._ I.E.U.Z.g.( P ;.g.%Xy.| ( G W p L L ~ W n M x 0 : % @ ",
"  o o * 8 Q 0.o.o. .d.x.x.h.X...I ( Y y.1.T Y } { 6.].R.A.E._ J -X(.D.%X9XwXyX:X5X X=X{.L.!.D.!.>Xp.` ).3.V.A.R.D.6.T T A.J.J.&.D d l k k b L W ~ b x x q * @ @ ",
"    X & 6 L ^ ! X.h.h.d.L.h.[ P G I ( 1.6._ | ;.;.Z.].Z.A.;.g :.9XQ.j.G.C.(.%XT.L.L.=X=X[.L.H.H. XZ.g F.S.C.U.g.g.,.%.( R.].g.( G z r 0 n M c s ~ ~ n p r * @ @ ",
"    . + 0 c b  .s.[ d.l.H.o.) P I D Y ( g.} &.,.&.;.A.5.C.K Y H.).u.H.u.D.].L.K.D.(.L.'.[.F.f.Q.'.(.S ,.G.S.V.i.;.Y &.1.].D.Z.} z p v 0 l ^ c p x W b p 0 , @ @ ",
"    . + 6 k b ! ..>.d.l.0.W 1.P ( | P | d.f.C.3.J 3.].Z.i.J ,.C.j.:.q.,.f.f.y.k.F.).K.H.d.y.y.D.u.W.i.=.Y.S.A.6.{ T Z.*X X).f.1.z r p 1 7 / k b x x b p 0 < # o ",
"    . o < k W ! >.x.d.0.X.d.1. .Y | P ( 1.T.Y.T V.&XZ.g.( A.).e.L v ! { <.d.w.d.d.T.d.f.>.-.H :.Q u.)./.,.Z.R.T.*.5./.%X].,X<.} r k p 4 1 x x s n k a i , ; * o ",
"      X 6 l L O.s.x.s.s.>.o.1.X.I | ( ( f. XL.Z.5.Y.n.4.;.).Q.0.[ v q k } >.f.F.L.L.).6.:.) H f a.k.%XqXG.G.A.6Xi.A.f.>X!.D.<.d 1 k 0 1 0 k x 1 k x k 0 * @ # % ",
"      @ 6 k L >.d.s.>.>.c.) X.d.P P I | d.[.k.].6X5.*.,.Z.%Xq.0.X.q.[ G 1.G.L.].]./.].Y.;.Q :.u.W.u.p.jX:XA.U.@X6Xi./.{./.D.=.0 7 c i 1 k x k s 7 x k 1 # @ o @ ",
"    . @ 4 k [ d.o.d.d.~ s.W >.x.X.( k ( d.{.,XL.*XE _ ,.K./.p.u.d.H.1.T g.L.{.=X=X>XT.K.S.;.q.).(.D.F.-X,X%XU.5.%X4X=X|.k.=.L q p k k 0 x x s s s k x 1 * o X X ",
"  X X & < c ~  .0.x.o.P X.o.X.x.d.T z l >.d.>XxXU.F &.Z.g.H.k.1.g.].Z.Z.:X>X&X,X=X5X3X*X*XJ.J.].T.].'.|./.G.;.N.qXqX/.y.q.=.c d h i q i M l f i s s k 1 * @ . X ",
"  X o @ 6 p L >.d.1.q X.X.X.w.w.<...k q N >.'.xX6.&.5.g.d.L./.,XiXtX:XhXmXxXxXxXjXxXhXzXkXhX5X]. X=X/.}.D.;.;.4.%X-XK.q.-.| h 4 i 0 8 i ^ v 7 7 i i p ; * @ o . ",
"  X o & : p ! o.o.k p  .| X.[ L o.1.I l l  .l.,XL.;.} } H.|.uXjXnXMXbXmXSXAXbXnXnXvXvXAXFXFXbXkXlXmXmX;X~.4.p.6.>X).w.y.=.` d 8 6 i q h ~ H p 6 q q 0 % % & @ O ",
"    o @ , q x [ ~ d k W k 1.k v ! -.( v k P d.!./.g.1.l.'.;XxXR 3.<XAXbXsXgX4XgXfX1X1XbXZXFXAXsXR.S.wXcXQ.D.p.C.-XG.q.y.Q S g 3 q d 0 h ~ H h 0 q 0 4 * o % @ o ",
"    o + , 1 k  .! 0 v v H | v T | ;.J.Z.6.3.I 1.D.=.c.h.'. XiX5.e 7.7.Z $.n.oXI.#XI.B.7.#.N.1X$.$ E >XwX(.;XH.u.D.f.g.1.K S d 3 f i p x W H h p q 6 3 * % o % o ",
"      X * 4 k ! v k b k Q k c v D | d.| T _ *.I 6.f.^.XXXX;XuX%X@.- 2   = e y Z @.V e = . O y $ V ).BXwX;XwX~.].G.5X&XD.T %.Y q K d d h H K f p q 0 : & % % + + ",
"      @ @ 6 p c b 1 v v L s L l l k } P I _ I | 6.:Xd.d.v.XX;XtXY.U u O   5 U y e V y       o y 2.xXBXrX_.Q.u.cXJ.g.C.;.;._ Y g d 8 f l Q v c s q , & % % % o o ",
".     + @ < 3 v 0 & b [ b c z v D { ;.3.{ *.A.A.U. X0X7Xs.w.r.XX9XsXOXU 2 - 2 y 5 y O $ 2 Z #.$.!.0X(.0.-.W.wXlXR.6XR.V.Y I g h q q p x Q G H p q : & @ % % % o ",
".     X @ * , p * # W  .b L P k 0 r D R _ } ;._ 1.1.tXNXNXeXXX`._.cXmXvXB.t O u = = $ Z N.sXbXqX.X`.H.`.wXcXwXqX6XU.V.%.D } z G d 6 i p H ) H h 7 4 # # # # + X ",
"        @ % , 6 * , W [ ^ ^ c v k 0 q r { 2.{ *.3.J.!.0XpXpXiX9XrXBXSXSXbXN.$ $ $ $ Z $XCXAXnX9XH..XNXcXpXcXyX;X| I G D r l z k P d 1 6 h ~ L x i > # + + + + + ",
"        o o 4 < @ 1 Q ~ L O.b ! c k q z I d F 7.V.E.uXXXx.c.v.;XcXBXmXMXMX4XB.C O E $XMXbXMXhXtXlXcXyXiX0X|.yXhX#XN.i.;.z r H 0 x H f < i c Q H i > # # + + + X ",
"        . X , ; & 6 b W ] s.L  .~ H r G v E 3.%.6.&.l.9X0X0X,X=X,X[.sX&XfXgXgXoXO B.gXfXsX*X%Xk.f.!.j...q.(.iXC.A.5.} I Y D G G 4 p x d 1 q c L w 3 + + + + + X ",
"        . o & & * p c ~ 9.s.N X.>.| l T | g R D v 3.E. X9XiXpXuXtXnXvXgX4XbXZXaX$ $XZXgXfXgXfXhX3XtXuX9X9XwX-X@X3.J ` ;.I q 8 l p 4 4 i q 1 q i i 3 + + + X X X ",
"        . X + + @ p b Q x.X.1.d.<.} v ! } r w _ T %.&.6X6X%X{.6XhXvXfXvXvXdXgX$XO oXgXaXgXgXbX<X&X&X&X&X5X5X2X6X@X4.Y :.T l 8 6 i 6 < < i 6 1 6 > > # X X X X X ",
"          . o X # q b [ >.M x.d.o.[ l ( ( v w T I { 5.Z.{.nXMXjX4XdXMXfXfXfXfX$XO b.fXfXfXgXbXbX1X*X].*XqX4X6XU.V.V.%.I ( q w 6 4 6 6 < < 8 < ; ; + + + X X X X ",
"          . X X & < c ~ >.W q.d.) P k  .T l t I { { V.1.&.].5XhXvXvXdXsXaX$XB.A C C b.$XaXaXfXgXfX6X&X&XS.E.E.@X%.4.%.( Q d 8 1 < < 6 6 < 6 < ; + + o o X X X X ",
"            . . + , k  . .W [ j.P l c w.G p g l { { 6.V.Z | J.6XfXgXgX$XB.Z 2 2 2 Z = C b.+XaXdXfX@XA.U.*.7.E.U.V._ ` K L h 8 6 , < 1 8 < 6 > # + + X X X . . . ",
"              . X # 8  .L l d.! c I k y.l w w I 1.1.Z.;.*.t | g.E.oX$.V @.n.n.2.b.oXB.N.$.+.@.#.S.5.*.F 2.A.3.i.A.=.` K l d 9 8 3 , , 3 3 , ; * + o X . . . . . ",
"                . & q [ v x d.k l v v w.p 3 4 P &.w.f.*.7.S 5 F y U b.n.P.oXn.b.+X+X$XoXB.N.B.n.@.V U U 3.V.*.4.:.4.( G h i 8 6 8 3 , > : : * + X X X X . . . . ",
"                . & w v L L X.q v p | L q : 6 | | 1.&.V.{ D R *.B.+XaXaX1XOX#X#XoX$XoXI.#XI.#X$X$X$Xn.J %.4.*.&._ :._ P h 0 9 9 6 8 , : # * + + X X X X . . . . ",
"                X @ 4 r v H b 8 k q | k 0 ; w 1.X.{ 1.1.T I *.B.$XfXgXgXsXaXaX#X$X+XoXB.oX#X1X$XdXaXP.J T &.{ Y } ` I P l q 0 6 6 6 > : + # # X X X . . . . . . ",
"                  X 3 1 l l k 0 6 q ! q 0 * l y.! T %.{ T T I n.1XfXfXsXaXaX$XOXoXoXB.+X#XOX<X<XaX1X+.Y R T %.I _ H P v h q w 4 4 3 : * + # o X . X . . . . . . ",
"                  X & , q p q 6 < q b 0 1 & v 1.I v T I I z I *.#XaXaXoXn.+X+X+XoXB.B.oXoXoX+X<X$X+X*.F _ I Y J S P g l d r 8 3 , , ; & + + + . X . . . . . . . ",
"                  X X o , < p ; , 6 l q 1 < | T v z P v l z d E I.<XoXb.$.B.+X$XB.B.n.b.oXoXn.#XOX2.2.F J U D S r h q d w 8 8 3 : ; # # + . X . . . . . . . . . ",
"                  X .   + , 6 * , 4 q 8 1 < T v z l I D l z r g oXB.N.+.*.b.+XB.2.n.2.+.b.n.#.n.+XF t F F F S g q r 8 6 4 4 4 3 , & % + X . X . . . . . .       ",
"  .             . X . . X , < * ; , 1 0 1 : v d d z l S l r r t 2.$.#.V U #.B.2.@.$.$.@.2.#.U U B.F t z t t w t 8 4 5 , , , , , : # @ + X . . . . . . . . X   . "
};
